<svg width="24" height="24" clip-rule="evenodd" fill-rule="evenodd" xmlns="http://www.w3.org/2000/svg">
    <path
        d="M15.668 7.922L24 9.126l-6.065 6.102 1.48 8.665-7.416-4.152-7.416 4.152 1.481-8.665L0 9.126l8.331-1.204L11.999 0zm-6.67.961l-6.818.985 4.963 4.993-1.212 7.09 6.068-3.398 6.069 3.398-1.212-7.09 4.964-4.993-6.819-.985L11.999 2.4zm7.858 5.977l-.39.496" />
    <path
        d="M10.491 10.404c-.808-.826-1.468-1.512-1.468-1.526 0-.04 2.97-6.445 2.982-6.432.012.014 2.949 6.354 2.955 6.381.003.014-2.99 3.087-2.999 3.08l-1.47-1.503z"
        fill="#f00" />
</svg>