<svg width="24" height="24" clip-rule="evenodd" fill-rule="evenodd" xmlns="http://www.w3.org/2000/svg">
    <path
        d="M15.668 7.922L24 9.126l-6.065 6.102 1.48 8.665-7.416-4.152-7.416 4.152 1.481-8.665L0 9.126l8.331-1.204L11.999 0zm-6.67.961l-6.818.985 4.963 4.993-1.212 7.09 6.068-3.398 6.069 3.398-1.212-7.09 4.964-4.993-6.819-.985L11.999 2.4zm7.858 5.977l-.39.496" />
    <path
        d="M11.024 10.943L9.167 8.882c-.09-.1-.072-.14 1.337-3.183a540.763 540.763 0 011.464-3.149c.025-.043.556 1.052 1.524 3.142 1.464 3.16 1.489 3.21 1.639 3.235.084.014 1.543.224 3.243.466 1.7.242 3.129.455 3.175.473.078.03-1.154.46-7.389 2.574l-1.368.464z"
        fill="#f00" />
    <path
        d="M13.666 15.609L9.183 9.147c-.124-.177-.153-.257-.124-.343l.037-.112.027.106c.028.105 3.612 4.12 3.679 4.12.019 0 1.432-.477 3.141-1.059 4.562-1.553 4.806-1.638 5.27-1.822.234-.093.447-.161.474-.153.026.01-1.05 1.128-2.393 2.486s-2.44 2.506-2.44 2.55c0 .043.261 1.612.582 3.486s.575 3.413.567 3.42c-.008.007-1.96-2.79-4.337-6.217z"
        fill="#f00" />
</svg>