<svg width="24" height="24" fill-rule="evenodd" clip-rule="evenodd" xmlns="http://www.w3.org/2000/svg"><path d="M15.668 7.922L24 9.126l-6.065 6.102 1.48 8.665-7.416-4.152-7.416 4.152 1.481-8.665L0 9.126l8.331-1.204L11.999 0zm-6.67.961l-6.818.985 4.963 4.993-1.212 7.09 6.068-3.398 6.069 3.398-1.212-7.09 4.964-4.993-6.819-.985L11.999 2.4zm7.858 5.977l-.39.496"/><path d="M11.024 10.943c-.972-1.079-1.808-2.006-1.857-2.062-.089-.099-.072-.14 1.337-3.182a536.615 536.615 0 011.464-3.149c.025-.044.556 1.052 1.524 3.142 1.464 3.16 1.489 3.209 1.64 3.235.083.014 1.542.224 3.242.466 1.7.242 3.129.455 3.176.473.078.03-1.155.46-7.39 2.574l-1.368.464z" fill="#f00"/><path d="M13.666 15.61a22299.27 22299.27 0 00-4.483-6.462c-.124-.178-.153-.257-.125-.344l.038-.112.027.106c.028.105 3.612 4.12 3.678 4.12.02 0 1.433-.477 3.142-1.059 4.562-1.553 4.806-1.638 5.27-1.822.234-.093.447-.161.474-.152.026.009-1.05 1.127-2.393 2.486-1.342 1.358-2.44 2.505-2.44 2.549 0 .043.261 1.612.582 3.486.32 1.874.575 3.413.567 3.42-.008.008-1.96-2.79-4.337-6.217zM6.042 21.813c.039-.11 5.911-8.552 5.942-8.543.018.005 1.135 1.596 2.482 3.535 1.347 1.939 2.676 3.847 2.954 4.241.277.394.493.727.48.74-.013.013-1.333-.709-2.933-1.605-1.6-.896-2.935-1.63-2.967-1.63-.04 0-4.928 2.71-5.934 3.29-.023.013-.034 0-.024-.028z" fill="#f00"/></svg>