<svg width="24" height="24" clip-rule="evenodd" fill-rule="evenodd" xmlns="http://www.w3.org/2000/svg">
    <path
        d="M15.668 7.922L24 9.126l-6.065 6.102 1.48 8.665-7.416-4.152-7.416 4.152 1.481-8.665L0 9.126l8.331-1.204L11.999 0zm-6.67.961l-6.818.985 4.963 4.993-1.212 7.09 6.068-3.398 6.069 3.398-1.212-7.09 4.964-4.993-6.819-.985L11.999 2.4zm7.858 5.977l-.39.496" />
    <g fill="#f00" stroke-width="0">
        <path
            d="M11.024 10.943L9.167 8.882c-.09-.1-.072-.14 1.337-3.183a540.763 540.763 0 011.464-3.149c.025-.043.556 1.052 1.524 3.142 1.464 3.16 1.489 3.21 1.639 3.235.084.014 1.543.224 3.243.466 1.7.242 3.129.455 3.175.473.078.03-1.154.46-7.389 2.574l-1.368.464z" />
        <path
            d="M13.666 15.609L9.183 9.147c-.124-.177-.153-.257-.124-.343l.037-.112.027.106c.028.105 3.612 4.12 3.679 4.12.019 0 1.432-.477 3.141-1.059 4.562-1.553 4.806-1.638 5.27-1.822.234-.093.447-.161.474-.153.026.01-1.05 1.128-2.393 2.486s-2.44 2.506-2.44 2.55c0 .043.261 1.612.582 3.486s.575 3.413.567 3.42c-.008.007-1.96-2.79-4.337-6.217zM6.042 21.813c.039-.11 5.911-8.552 5.942-8.543.018.005 1.135 1.596 2.482 3.535 1.347 1.939 2.676 3.847 2.954 4.241.277.394.493.727.48.74-.013.014-1.333-.709-2.933-1.605-1.6-.896-2.935-1.63-2.967-1.63-.04 0-4.928 2.71-5.934 3.29-.023.013-.034 0-.024-.028z" />
        <path
            d="M5.964 21.872c0-.02.266-1.594.591-3.497.326-1.902.592-3.475.592-3.496s-1.111-1.154-2.469-2.519-2.447-2.474-2.42-2.463c.026.01 2.22.757 4.877 1.66 2.656.903 4.843 1.653 4.86 1.667.038.033.038.07 0 .055-.017-.005-.05.015-.072.046-.503.694-4.022 5.746-5.387 7.732-.275.4-.5.75-.5.776 0 .027-.016.055-.036.063-.023.009-.036 0-.036-.024z" />
    </g>
</svg>