<svg width="24" height="24" fill-rule="evenodd" clip-rule="evenodd" xmlns="http://www.w3.org/2000/svg">
    <path
        d="M15.668 7.922L24 9.126l-6.065 6.102 1.48 8.665-7.416-4.152-7.416 4.152 1.481-8.665L0 9.126l8.331-1.204L11.999 0zm-6.67.961l-6.818.985 4.963 4.993-1.212 7.09 6.068-3.398 6.069 3.398-1.212-7.09 4.964-4.993-6.819-.985L11.999 2.4zm7.858 5.977l-.39.496" />
    <path d="M12 11.946v0M12 11.946v0" fill="none" stroke="#000" />
    <path
        d="M10.491 10.404c-.807-.826-1.468-1.512-1.468-1.526 0-.04 2.97-6.444 2.982-6.431.013.013 2.95 6.353 2.955 6.38.004.014-2.99 3.088-2.999 3.08l-1.47-1.503zM14.4 13.417l-2.443-1.446c0-.002.676-.694 1.506-1.54 1.447-1.475 1.51-1.536 1.564-1.531.08.006 6.71.96 6.74.97.016.005-.158.192-.488.524l-2.476 2.492-1.963 1.976z"
        fill="#f00" />
    <path d="M15.01 8.867c-5.365 5.476 0 0 0 0z" fill="none" stroke="#f00" stroke-width="1.788" />
    <path
        d="M14.984 20.196l-2.956-1.653-.002-3.25c-.001-1.788.014-3.241.034-3.23.594.344 4.73 2.803 4.752 2.826.025.027 1.2 6.806 1.2 6.926 0 .02-.016.036-.036.035-.02 0-1.367-.745-2.992-1.654zM5.99 21.79c0-.032.268-1.613.593-3.511l.592-3.451 2.356-1.414C10.826 12.636 11.903 12 11.923 12c.048 0 .101 2.485.101 4.738v1.768L9.037 20.18c-1.643.92-3.001 1.672-3.018 1.672-.017 0-.03-.027-.03-.06zM4.693 12.355C3.362 11.007 2.279 9.898 2.287 9.89c.007-.007 1.522-.231 3.366-.498l3.353-.485.386.4c.212.22.88.904 1.484 1.521l1.098 1.122-.156.08c-.086.045-1.15.676-2.366 1.404-1.215.727-2.239 1.333-2.275 1.347-.04.015-.988-.91-2.484-2.426z"
        fill="#f00" />
</svg>