<svg xmlns="http://www.w3.org/2000/svg" viewBox="0 0 36 36"><path d="M36 18c0 9.941-8.059 18-18 18-9.94 0-18-8.059-18-18C0 8.06 8.06 0 18 0c9.941 0 18 8.06 18 18z" fill="#FFCC4D"/><path d="M11.5 20c1.38 0 2.5-1.567 2.5-3.5S12.88 13 11.5 13 9 14.567 9 16.5s1.12 3.5 2.5 3.5zm13 0c1.38 0 2.5-1.567 2.5-3.5S25.88 13 24.5 13 22 14.567 22 16.5s1.12 3.5 2.5 3.5zm-1.015 7.879C23.474 27.835 22.34 23.5 18 23.5s-5.474 4.335-5.485 4.379a.496.496 0 00.232.544.51.51 0 00.596-.06c.009-.007 1.013-.863 4.657-.863 3.59 0 4.617.83 4.656.863a.496.496 0 00.803-.165.5.5 0 00.026-.319z" fill="#664500"/><path d="M10 30a5 5 0 01-5 5 5 5 0 01-5-5c0-2.762 4-10 5-10s5 7.238 5 10z" fill="#5DADEC"/><path d="M30 13c-5.554 0-7.802-4.367-7.895-4.553a1 1 0 011.787-.899C23.967 7.694 25.713 11 30 11a1 1 0 010 2zM6 13a1 1 0 010-2c5.083 0 5.996-3.12 6.033-3.253.145-.528.69-.848 1.219-.709.53.139.851.673.718 1.205C13.921 8.437 12.704 13 6 13z" fill="#664500"/></svg>